<svg width="20" height="20" viewBox="0 0 20 20" fill="none" xmlns="http://www.w3.org/2000/svg">
<path fill-rule="evenodd" clip-rule="evenodd" d="M6.87524 0.833374C6.25831 0.833374 5.66257 1.0722 5.22014 1.50372C4.77699 1.93592 4.52409 2.52661 4.52409 3.14706V7.22638C2.86634 7.78425 1.66602 9.3368 1.66602 11.1778C1.66602 12.514 2.29838 13.6983 3.27903 14.4606L2.77076 18.2401C2.735 18.506 2.85439 18.769 3.07812 18.9171C3.30185 19.0652 3.59056 19.0724 3.82138 18.9356L5.87937 17.716L7.93735 18.9356C8.16816 19.0723 8.45685 19.0652 8.68057 18.9171C8.9043 18.769 9.02371 18.5061 8.98799 18.2402L8.86217 17.3035H15.9822C16.5991 17.3035 17.1948 17.0647 17.6373 16.6332C18.0804 16.201 18.3333 15.6103 18.3333 14.9899V6.10776C18.3333 5.88313 18.2426 5.66802 18.0818 5.51118L13.5284 1.07013C13.3727 0.918337 13.1639 0.833374 12.9465 0.833374H12.9453H6.87524ZM4.59845 15.1535L4.35088 16.9944L5.5225 16.3001C5.74255 16.1697 6.01619 16.1697 6.23623 16.3001L7.40809 16.9946L7.16081 15.1538C6.75652 15.2814 6.32613 15.3502 5.88014 15.3502C5.43378 15.3502 5.00303 15.2813 4.59845 15.1535ZM8.48036 14.4613L8.63828 15.6369H15.9822C16.1703 15.6369 16.3467 15.5638 16.4736 15.44C16.5997 15.317 16.6667 15.1546 16.6667 14.9899V6.94109H12.9453C12.4851 6.94109 12.112 6.56799 12.112 6.10776V2.50004H6.87524C6.68708 2.50004 6.51068 2.57314 6.38383 2.69687C6.25768 2.8199 6.19076 2.98227 6.19076 3.14706V7.01654C8.36483 7.17376 10.0943 8.96798 10.0943 11.1778C10.0943 12.5144 9.46152 13.699 8.48036 14.4613ZM13.7786 3.64234V5.27442H15.452L13.7786 3.64234ZM11.1667 9C11.1667 8.53976 11.5398 8.16667 12 8.16667H14C14.4602 8.16667 14.8333 8.53976 14.8333 9C14.8333 9.46024 14.4602 9.83333 14 9.83333H12C11.5398 9.83333 11.1667 9.46024 11.1667 9ZM12 11.1667C11.5398 11.1667 11.1667 11.5398 11.1667 12C11.1667 12.4602 11.5398 12.8333 12 12.8333H14C14.4602 12.8333 14.8333 12.4602 14.8333 12C14.8333 11.5398 14.4602 11.1667 14 11.1667H12ZM3.33268 11.1778C3.33268 9.80361 4.46344 8.67202 5.88014 8.67202C7.29684 8.67202 8.4276 9.80361 8.4276 11.1778C8.4276 12.552 7.29684 13.6836 5.88014 13.6836C4.46344 13.6836 3.33268 12.552 3.33268 11.1778Z" fill="#4E4E4E"/>
</svg>
