<svg xmlns="http://www.w3.org/2000/svg" fill="none" viewBox="0 0 20 20">
  <path fill="#4E4E4E" fill-rule="evenodd" d="M4 3v13.59h5.538a1 1 0 0 1 0 2H3.872A1.872 1.872 0 0 1 2 16.718V2.872C2 1.838 2.838 1 3.872 1h12.64c1.035 0 1.873.838 1.873 1.872v7.333a1 1 0 1 1-2 0V3H4Z" clip-rule="evenodd"/>
  <path fill="#4E4E4E" fill-rule="evenodd" d="M6.5 12a.5.5 0 0 1 .5-.5h6.5a.5.5 0 0 1 0 1H7a.5.5 0 0 1-.5-.5Zm0 2.308a.5.5 0 0 1 .5-.5h3.846a.5.5 0 1 1 0 1H7a.5.5 0 0 1-.5-.5Z" clip-rule="evenodd"/>
  <path fill="#4E4E4E" d="M8.611 5.642c0-.422.178-.826.495-1.125a1.746 1.746 0 0 1 1.196-.466c.448 0 .878.168 1.195.466.317.299.495.703.495 1.125 0 .422-.178.827-.495 1.125a1.745 1.745 0 0 1-1.195.466c-.449 0-.879-.167-1.196-.466a1.545 1.545 0 0 1-.495-1.125Zm1.631 2.01a.31.31 0 0 1 .038-.004h.043c.013 0 .025.001.038.003l2.145.355.01.002c.396.086.82.322.903.78l.001.009.034.242c.077.556-.391.961-.944.961a.309.309 0 0 1-.036-.003h-4.38c-.554 0-1.022-.404-.944-.96l.033-.24.002-.01c.082-.45.51-.699.904-.78h.009l2.144-.356Zm7.9 5.258a.348.348 0 0 0 0-.514l-.906-.853a.403.403 0 0 0-.547 0l-.712.667 1.453 1.367m-6.149 3.056V18h1.453l4.285-4.036-1.453-1.368-4.285 4.037Z"/>
</svg>
