<svg xmlns="http://www.w3.org/2000/svg" viewBox="0 0 20 20">
  <path d="M4.167 3.333c-.418 0-.833.372-.833.926v12.315c0 .554.415.926.833.926h11.667c.418 0 .833-.372.833-.926V4.26c0-.554-.415-.926-.833-.926H4.167Zm-2.5.926c0-1.389 1.077-2.592 2.5-2.592h11.667c1.422 0 2.5 1.203 2.5 2.592v12.315c0 1.389-1.078 2.593-2.5 2.593H4.167c-1.423 0-2.5-1.204-2.5-2.593V4.26Z" clip-rule="evenodd"/>
  <path d="M10.737 6.25h.865c.162 0 .308.056.407.142a.366.366 0 0 1 .138.275c0 .09-.04.19-.138.274a.625.625 0 0 1-.407.142h-.865V6.25Zm0 1.667h.865c.348 0 .691-.12.953-.346.263-.228.425-.552.425-.904 0-.353-.162-.676-.425-.904a1.458 1.458 0 0 0-.953-.346h-.86c-.088 0-.207-.001-.315.03a.749.749 0 0 0-.285.152.691.691 0 0 0-.196.278l-.001.004a.672.672 0 0 0-.039.194 2.364 2.364 0 0 0-.003.14v2.952a.417.417 0 1 0 .834 0v-1.25Zm-3.639-2.5a.417.417 0 0 1 .392.236l1.603 3.333a.417.417 0 0 1-.751.361l-.287-.597H6.44l-.218.566a.417.417 0 0 1-.778-.299l1.282-3.333a.417.417 0 0 1 .372-.267Zm-.338 2.5h.894l-.497-1.034-.397 1.034Zm7.406-2.5c.23 0 .417.186.417.416v3.334a.417.417 0 1 1-.834 0V5.833c0-.23.187-.416.417-.416Zm-4.305 8.154a.417.417 0 0 0-.417-.416H5a.417.417 0 1 0 0 .833h4.444c.23 0 .417-.186.417-.417Zm0 1.905a.417.417 0 0 0-.417-.417H5a.417.417 0 0 0 0 .834h4.444c.23 0 .417-.187.417-.417Zm0-3.809a.417.417 0 0 0-.417-.417H5a.417.417 0 0 0 0 .833h4.444c.23 0 .417-.186.417-.416Zm5.081 1.904a.417.417 0 0 0-.417-.416h-.635a.417.417 0 1 0 0 .833h.635c.23 0 .417-.186.417-.417Zm0 1.905a.417.417 0 0 0-.417-.417h-.635a.417.417 0 0 0 0 .834h.635c.23 0 .417-.187.417-.417Zm0-3.809a.417.417 0 0 0-.417-.417h-.635a.417.417 0 0 0 0 .833h.635c.23 0 .417-.186.417-.416ZM12.4 13.571a.417.417 0 0 0-.416-.416h-.635a.417.417 0 1 0 0 .833h.635c.23 0 .416-.186.416-.417Zm0 1.905a.417.417 0 0 0-.416-.417h-.635a.417.417 0 0 0 0 .834h.635c.23 0 .416-.187.416-.417Zm0-3.809a.417.417 0 0 0-.416-.417h-.635a.417.417 0 0 0 0 .833h.635c.23 0 .416-.186.416-.416Z" clip-rule="evenodd"/>
</svg>
