<svg xmlns="http://www.w3.org/2000/svg" viewBox="0 0 20 20">
  <path d="M2.5 8.333c.46 0 .834.373.834.834v6.666a.833.833 0 0 0 .833.834h11.667a.833.833 0 0 0 .833-.834V9.167a.833.833 0 1 1 1.667 0v6.666a2.5 2.5 0 0 1-2.5 2.5H4.167a2.5 2.5 0 0 1-2.5-2.5V9.167c0-.46.373-.834.833-.834Zm2.744-1.077a.833.833 0 0 0 1.179 0L10 3.679l3.578 3.577a.833.833 0 1 0 1.178-1.179L10.59 1.911a.833.833 0 0 0-1.179 0L5.244 6.077a.833.833 0 0 0 0 1.179Z" clip-rule="evenodd"/>
  <path d="M10 13.333c.46 0 .834-.373.834-.833v-10a.833.833 0 0 0-1.667 0v10c0 .46.373.833.833.833Z" clip-rule="evenodd"/>
</svg>
