<svg xmlns="http://www.w3.org/2000/svg" viewBox="0 0 20 20">
  <path d="M1.666 4.167a2.5 2.5 0 0 1 2.5-2.5h11.667a2.5 2.5 0 0 1 2.5 2.5v11.666a2.5 2.5 0 0 1-2.5 2.5H4.166a2.5 2.5 0 0 1-2.5-2.5V4.167Zm2.5-.834a.833.833 0 0 0-.833.834v11.666c0 .46.373.834.833.834h11.667c.46 0 .833-.373.833-.834V4.167a.833.833 0 0 0-.833-.834H4.166Z" clip-rule="evenodd"/>
  <path d="M4.65 11.839a.495.495 0 0 1 .699 0l2.398 2.397 2.397-2.397a.494.494 0 0 1 .7.7l-2.748 2.746a.495.495 0 0 1-.7 0L4.65 12.538a.494.494 0 0 1 0-.7Z" clip-rule="evenodd"/>
  <path d="M7.745 8.672c.273 0 .495.222.495.495v5a.494.494 0 1 1-.99 0v-5c0-.273.222-.495.495-.495Zm1.411-.575a.494.494 0 0 0 .699 0l2.397-2.398 2.398 2.398a.494.494 0 1 0 .7-.7L12.601 4.65a.494.494 0 0 0-.7 0L9.157 7.398a.494.494 0 0 0 0 .699Z" clip-rule="evenodd"/>
  <path d="M12.251 11.264a.495.495 0 0 0 .495-.495v-5a.494.494 0 0 0-.99 0v5c0 .273.222.495.495.495Z" clip-rule="evenodd"/>
</svg>
