<svg xmlns="http://www.w3.org/2000/svg" viewBox="0 0 20 20">
  <path d="M2.5 9.167c.46 0 .834.373.834.833v5.833a.833.833 0 0 0 .833.834h11.667a.833.833 0 0 0 .833-.834V10a.833.833 0 0 1 1.667 0v5.833a2.5 2.5 0 0 1-2.5 2.5H4.167a2.5 2.5 0 0 1-2.5-2.5V10c0-.46.373-.833.833-.833Z" clip-rule="evenodd"/>
  <path d="M5.244 7.744a.833.833 0 0 1 1.179 0L10 11.322l3.578-3.578a.833.833 0 1 1 1.178 1.179l-4.166 4.166a.833.833 0 0 1-1.179 0L5.244 8.923a.833.833 0 0 1 0-1.179Z" clip-rule="evenodd"/>
  <path d="M10 1.667c.46 0 .834.373.834.833v10a.833.833 0 1 1-1.667 0v-10c0-.46.373-.833.833-.833Z" clip-rule="evenodd"/>
</svg>
