<svg xmlns="http://www.w3.org/2000/svg" viewBox="0 0 20 20">
  <path d="M4.167 3.333c-.418 0-.833.372-.833.926v12.315c0 .554.415.926.833.926h11.667c.418 0 .833-.372.833-.926V4.259c0-.554-.415-.926-.833-.926H4.167Zm-2.5.926c0-1.389 1.077-2.592 2.5-2.592h11.667c1.422 0 2.5 1.203 2.5 2.592v12.315c0 1.389-1.078 2.593-2.5 2.593H4.167c-1.423 0-2.5-1.204-2.5-2.593V4.259Z" clip-rule="evenodd"/>
  <path d="M13.509 8.588c-.07-.085-.104-.161-.104-.228 0-.07.057-.16.172-.272a.304.304 0 0 1 .212-.096c.075 0 .179.067.312.2a.64.64 0 0 0 .16.132c.07.04.133.06.192.06.248 0 .372-.101.372-.304 0-.061-.035-.112-.104-.152a.7.7 0 0 0-.252-.092 2.334 2.334 0 0 1-.328-.088 2.307 2.307 0 0 1-.328-.148.679.679 0 0 1-.256-.264.908.908 0 0 1-.1-.44c0-.235.087-.439.26-.612.176-.176.415-.264.716-.264.16 0 .305.021.436.064a.82.82 0 0 1 .276.124l.1.076c.083.077.124.143.124.196 0 .053-.032.127-.096.22-.09.133-.184.2-.28.2a.41.41 0 0 1-.256-.12.482.482 0 0 0-.06-.052.405.405 0 0 0-.216-.052.357.357 0 0 0-.216.064.199.199 0 0 0-.084.172c0 .072.033.13.1.176.07.045.155.076.256.092s.212.041.332.076c.12.032.23.072.332.12a.574.574 0 0 1 .252.252c.07.117.104.263.104.436a.983.983 0 0 1-.104.46.795.795 0 0 1-.272.304 1.242 1.242 0 0 1-.692.212 1.4 1.4 0 0 1-.356-.044 1.003 1.003 0 0 1-.272-.116.973.973 0 0 1-.296-.248l-.036-.044Zm-1.372-1.356h.704c.145.005.232.043.264.112.027.05.04.125.04.224v.88a.35.35 0 0 1-.111.244c-.225.232-.56.348-1.009.348a1.41 1.41 0 0 1-1.036-.448 1.504 1.504 0 0 1-.44-1.088c0-.424.15-.777.449-1.06a1.478 1.478 0 0 1 1.947-.116c.072.053.108.113.108.18 0 .064-.03.139-.092.224-.104.141-.198.212-.284.212-.05 0-.131-.036-.243-.108a.704.704 0 0 0-.4-.112.777.777 0 0 0-.54.216.717.717 0 0 0-.236.56c0 .23.08.425.24.588.16.16.34.24.543.24.147 0 .28-.024.396-.072V7.82h-.316a.355.355 0 0 1-.176-.032.15.15 0 0 1-.068-.092.719.719 0 0 1-.016-.168.74.74 0 0 1 .016-.172.138.138 0 0 1 .068-.088.432.432 0 0 1 .192-.036Zm-3.253-1.2c.395 0 .737.143 1.028.428.29.285.436.64.436 1.064 0 .421-.139.781-.416 1.08a1.348 1.348 0 0 1-1.024.444c-.405 0-.75-.147-1.036-.44a1.458 1.458 0 0 1-.424-1.048c0-.221.04-.428.12-.62a1.438 1.438 0 0 1 1.316-.908ZM8.156 7.54c0 .237.076.43.228.58.155.147.327.22.516.22.19 0 .36-.072.512-.216.152-.144.228-.337.228-.58a.767.767 0 0 0-.232-.584.72.72 0 0 0-.512-.22c-.19 0-.36.075-.512.224a.764.764 0 0 0-.228.576Zm-2.288.868h1.088a.43.43 0 0 1 .192.032c.04.019.067.05.08.092.014.043.02.1.02.172 0 .07-.006.125-.02.168a.138.138 0 0 1-.068.088.45.45 0 0 1-.208.04h-1.44c-.186 0-.296-.05-.328-.152a.629.629 0 0 1-.024-.204V6.42c0-.061.002-.107.004-.136a.361.361 0 0 1 .04-.108c.038-.072.142-.108.312-.108.187 0 .298.05.332.148.014.045.02.115.02.208v1.984Z"/>
  <path d="M12.917 13.333c0 .23-.187.417-.417.417H5a.417.417 0 0 1 0-.833h7.5c.23 0 .417.186.417.416Zm0 1.667a.417.417 0 0 0-.417-.417H5a.417.417 0 1 0 0 .834h7.5c.23 0 .417-.187.417-.417Zm0-3.333a.417.417 0 0 0-.417-.417H5a.417.417 0 1 0 0 .833h7.5c.23 0 .417-.186.417-.416Zm2.5 3.333a.417.417 0 0 0-.417-.417h-.833a.417.417 0 1 0 0 .834H15c.23 0 .417-.187.417-.417Zm0-3.333A.417.417 0 0 0 15 11.25h-.833a.417.417 0 1 0 0 .833H15c.23 0 .417-.186.417-.416Zm0 1.666a.417.417 0 0 0-.417-.416h-.833a.417.417 0 0 0 0 .833H15c.23 0 .417-.187.417-.417Z" clip-rule="evenodd"/>
</svg>
