<svg xmlns="http://www.w3.org/2000/svg" viewBox="0 0 20 20">
  <path d="M2.633 2.5a.7.7 0 0 1 .7-.7h10.834a2.367 2.367 0 0 1 2.367 2.367v10a.7.7 0 1 1-1.4 0v-10a.967.967 0 0 0-.967-.967H3.333a.7.7 0 0 1-.7-.7Z" clip-rule="evenodd"/>
  <path d="M1.66 2.493A2.367 2.367 0 0 1 5.7 4.167v11.666a.967.967 0 1 0 1.933 0V15a1.533 1.533 0 0 1 1.534-1.533H17.5A1.533 1.533 0 0 1 19.034 15v.833a2.367 2.367 0 0 1-2.367 2.367h-10A2.367 2.367 0 0 1 4.3 15.833V7.367H2.5A1.533 1.533 0 0 1 .967 5.833V4.167c0-.628.25-1.23.693-1.674ZM4.3 5.967v-1.8a.967.967 0 1 0-1.933 0v1.666a.133.133 0 0 0 .133.134h1.8ZM8.827 16.8h7.84a.967.967 0 0 0 .966-.967V15a.133.133 0 0 0-.133-.133H9.167a.133.133 0 0 0-.134.133v.833c0 .337-.071.666-.206.967Z" clip-rule="evenodd"/>
  <path d="M9.113 5.515c.215-.216.507-.336.811-.336h2.273a.39.39 0 1 1 0 .779H9.924a.368.368 0 0 0 0 .736h1.516a1.147 1.147 0 1 1 0 2.294H9.167a.39.39 0 0 1 0-.78h2.273a.368.368 0 1 0 0-.735H9.924a1.147 1.147 0 0 1-.81-1.958Z" clip-rule="evenodd"/>
  <path d="M10.682 4.61a.39.39 0 0 1 .39.39v4.167a.39.39 0 1 1-.78 0V5a.39.39 0 0 1 .39-.39Zm-3.599 6.223c0-.23.187-.416.417-.416h5.834a.417.417 0 1 1 0 .833H7.5a.417.417 0 0 1-.417-.417Zm0 1.297c0-.23.187-.417.417-.417h5.834a.417.417 0 1 1 0 .833H7.5a.417.417 0 0 1-.417-.416Z" clip-rule="evenodd"/>
</svg>
