<svg xmlns="http://www.w3.org/2000/svg" viewBox="0 0 20 20">
  <path fill-rule="evenodd" d="M15 10.833a1.667 1.667 0 1 0 0 3.334 1.667 1.667 0 0 0 0-3.334ZM11.666 12.5a3.333 3.333 0 1 1 6.667 0 3.333 3.333 0 0 1-6.667 0ZM7.5 3.333a2.5 2.5 0 1 0 0 5 2.5 2.5 0 0 0 0-5Zm-4.167 2.5a4.167 4.167 0 1 1 8.333 0 4.167 4.167 0 0 1-8.333 0Zm-1.28 7.054A4.167 4.167 0 0 1 5 11.667h3.333a.833.833 0 1 1 0 1.666H5a2.5 2.5 0 0 0-2.5 2.5V17.5a.833.833 0 1 1-1.667 0v-1.667c0-1.105.439-2.165 1.22-2.946Z" clip-rule="evenodd"/>
  <path fill-rule="evenodd" d="M16.542 13.153a.833.833 0 0 1 1.054-.527l.75.25a.833.833 0 0 1-.526 1.581l-.75-.25a.833.833 0 0 1-.528-1.054Zm-5.416-2.083a.833.833 0 0 1 1.054-.527l.75.25a.833.833 0 1 1-.527 1.58l-.75-.25a.833.833 0 0 1-.527-1.053Zm3.22 2.973a.833.833 0 0 1 .527 1.054l-.25.75a.833.833 0 0 1-1.58-.527l.25-.75a.833.833 0 0 1 1.053-.527Zm2.084-5.417a.833.833 0 0 1 .527 1.054l-.25.75a.833.833 0 0 1-1.582-.527l.25-.75a.833.833 0 0 1 1.055-.527Zm-.74 5.35a.833.833 0 0 1 1.083.464l.334.834a.833.833 0 1 1-1.548.619l-.333-.834a.833.833 0 0 1 .464-1.083Zm-2.333-5.333a.833.833 0 0 1 1.083.464l.334.834a.833.833 0 1 1-1.548.618l-.333-.833a.833.833 0 0 1 .464-1.083Zm.166 4.547a.833.833 0 0 1-.464 1.084l-.833.333a.833.833 0 0 1-.62-1.547l.834-.334a.833.833 0 0 1 1.083.464Zm5.334-2.333a.833.833 0 0 1-.465 1.083l-.833.334a.833.833 0 0 1-.619-1.548l.833-.333a.833.833 0 0 1 1.084.464Z" clip-rule="evenodd"/>
</svg>
