<svg xmlns="http://www.w3.org/2000/svg" viewBox="0 0 20 20">
  <path d="M1.667 4.167a2.5 2.5 0 0 1 2.5-2.5h11.667a2.5 2.5 0 0 1 2.5 2.5v11.666a2.5 2.5 0 0 1-2.5 2.5H4.167a2.5 2.5 0 0 1-2.5-2.5V4.167Zm2.5-.834a.833.833 0 0 0-.833.834v11.666c0 .46.373.834.833.834h11.667c.46 0 .833-.373.833-.834V4.167a.833.833 0 0 0-.833-.834H4.167Z" clip-rule="evenodd"/>
  <g clip-path="url(#a)" clip-rule="evenodd">
    <path d="M6.109 10.486c.268 0 .486.218.486.486v3.403a.486.486 0 0 1-.972 0v-3.403c0-.268.217-.486.486-.486Zm0-5.347c.268 0 .486.218.486.486v3.403a.486.486 0 0 1-.972 0V5.625c0-.268.217-.486.486-.486ZM10 9.514c.268 0 .486.218.486.486v4.375a.486.486 0 1 1-.972 0V10c0-.268.217-.486.486-.486Zm0-4.375c.268 0 .486.218.486.486v2.43a.486.486 0 1 1-.972 0v-2.43c0-.268.217-.486.486-.486Zm3.89 6.319c.269 0 .486.218.486.486v2.431a.486.486 0 1 1-.972 0v-2.43c0-.269.218-.487.486-.487Zm0-6.319c.269 0 .486.218.486.486V10a.486.486 0 1 1-.972 0V5.625c0-.268.218-.486.486-.486Z"/>
    <path d="M4.654 10.972c0-.268.218-.486.486-.486h1.945a.486.486 0 1 1 0 .972H5.14a.486.486 0 0 1-.486-.486ZM8.54 8.056c0-.269.217-.487.486-.487h1.944a.486.486 0 1 1 0 .973H9.025a.486.486 0 0 1-.486-.486Zm3.89 3.888c0-.268.218-.486.486-.486h1.945a.486.486 0 1 1 0 .973h-1.945a.486.486 0 0 1-.486-.486Z"/>
  </g>
  <defs>
    <clipPath id="a">
      <path d="M4.167 4.167h11.667v11.667H4.167z"/>
    </clipPath>
  </defs>
</svg>
